<svg width="128" height="128" viewBox="0 0 128 128" fill="none" xmlns="http://www.w3.org/2000/svg">
<g clip-path="url(#clip0_1_2)">
<path d="M36.8537 120H8.51562L45.3232 10.9091H80.4261L117.234 120H88.8956L63.2742 38.3949H62.4219L36.8537 120ZM33.0717 77.0668H92.3047V97.0952H33.0717V77.0668Z" fill="black"/>
<mask id="mask0_1_2" style="mask-type:alpha" maskUnits="userSpaceOnUse" x="8" y="10" width="110" height="110">
<path d="M36.8537 120H8.51562L45.3232 10.9091H80.4261L117.234 120H88.8956L63.2742 38.3949H62.4219L36.8537 120ZM33.0717 77.0668H92.3047V97.0952H33.0717V77.0668Z" fill="black"/>
</mask>
<g mask="url(#mask0_1_2)">
<path d="M30.2017 100V70.9091H37.233V94.2898H49.3352V100H30.2017ZM52.9751 100V70.9091H64.9922C67.1702 70.9091 69.05 71.3021 70.6314 72.0881C72.2223 72.8646 73.4486 73.982 74.3104 75.4403C75.1721 76.8892 75.603 78.608 75.603 80.5966C75.603 82.6136 75.1626 84.3277 74.282 85.7386C73.4013 87.1402 72.1513 88.2102 70.532 88.9489C68.9126 89.678 66.995 90.0426 64.7791 90.0426H57.1797V84.5028H63.4723C64.5329 84.5028 65.4183 84.3655 66.1286 84.0909C66.8482 83.8068 67.3928 83.3807 67.7621 82.8125C68.1314 82.2348 68.3161 81.4962 68.3161 80.5966C68.3161 79.697 68.1314 78.9536 67.7621 78.3665C67.3928 77.7699 66.8482 77.3248 66.1286 77.0312C65.4089 76.7282 64.5234 76.5767 63.4723 76.5767H60.0064V100H52.9751ZM69.353 86.7045L76.5973 100H68.9268L61.8246 86.7045H69.353ZM105.866 81.4489H98.7635C98.6688 80.7197 98.4747 80.0616 98.1811 79.4744C97.8875 78.8873 97.4993 78.3854 97.0163 77.9688C96.5334 77.5521 95.9605 77.2348 95.2976 77.017C94.6442 76.7898 93.9197 76.6761 93.1243 76.6761C91.7133 76.6761 90.4964 77.0218 89.4737 77.7131C88.4605 78.4044 87.6792 79.4034 87.13 80.7102C86.5902 82.017 86.3203 83.5985 86.3203 85.4545C86.3203 87.3864 86.5949 89.0057 87.1442 90.3125C87.7029 91.6098 88.4841 92.59 89.4879 93.2528C90.5012 93.9062 91.6991 94.233 93.0817 94.233C93.8582 94.233 94.5637 94.1335 95.1982 93.9347C95.8421 93.7358 96.4055 93.447 96.8885 93.0682C97.3809 92.6799 97.7834 92.2112 98.0959 91.6619C98.4179 91.1032 98.6404 90.4735 98.7635 89.7727L105.866 89.8153C105.743 91.1032 105.369 92.3722 104.744 93.6222C104.128 94.8722 103.281 96.0133 102.201 97.0455C101.121 98.0682 99.8052 98.8826 98.2521 99.4886C96.7086 100.095 94.9377 100.398 92.9396 100.398C90.3071 100.398 87.9491 99.8201 85.8658 98.6648C83.7919 97.5 82.1536 95.8049 80.951 93.5795C79.7483 91.3542 79.147 88.6458 79.147 85.4545C79.147 82.2538 79.7578 79.5407 80.9794 77.3153C82.201 75.09 83.8535 73.3996 85.9368 72.2443C88.0201 71.089 90.3544 70.5114 92.9396 70.5114C94.701 70.5114 96.3298 70.7576 97.826 71.25C99.3222 71.733 100.638 72.4432 101.775 73.3807C102.911 74.3087 103.835 75.4498 104.545 76.804C105.255 78.1581 105.695 79.7064 105.866 81.4489Z" fill="white"/>
</g>
</g>
<defs>
<clipPath id="clip0_1_2">
<rect width="128" height="128" fill="white"/>
</clipPath>
</defs>
</svg>
